<?xml version="1.0" encoding="utf-8"?>
<!-- Generator: Adobe Illustrator 27.8.1, SVG Export Plug-In . SVG Version: 6.00 Build 0)  -->
<svg version="1.1" id="Layer_1" xmlns="http://www.w3.org/2000/svg" xmlns:xlink="http://www.w3.org/1999/xlink" x="0px" y="0px"
	 viewBox="0 0 444.08 444.08" style="enable-background:new 0 0 444.08 444.08;" xml:space="preserve">
<style type="text/css">
	.st0{fill:#FFFFFF;stroke:#000000;stroke-miterlimit:10;}
	.st1{fill:#FFFFFF;}
	.st2{fill:#BA2027;}
	.st3{fill-rule:evenodd;clip-rule:evenodd;fill:#FFFFFF;}
	.st4{fill:#B42027;}
	.st5{fill:#FF0000;}
	.st6{fill:#010101;}
	.st7{fill:#FD2D56;}
	.st8{fill:none;}
	.st9{fill:#6DEFED;}
	.st10{fill:#FC2C54;}
	.st11{fill:#25F4EE;}
	.st12{fill:#030303;}
	.st13{fill:#040404;}
	.st14{fill:#020202;}
	.st15{fill-rule:evenodd;clip-rule:evenodd;}
	.st16{fill:#242021;}
	.st17{fill:#272324;}
	.st18{fill:#040303;}
	.st19{fill:#242122;}
	.st20{fill:#3B5999;}
	.st21{fill:#FDFDFD;}
	.st22{fill:#E52D27;}
	.st23{fill:#0180C7;}
	.st24{fill:#005CAA;}
	.st25{fill:#ED1D26;}
	.st26{fill:#EE4E2C;}
	.st27{fill:#FEFEFE;}
	.st28{fill:#AA1634;}
	.st29{fill:#268A52;}
	.st30{fill:#AF2070;}
	.st31{fill:#FDFCFD;}
	.st32{fill:#04BE04;}
	.st33{fill:#0290E6;}
	.st34{fill:#35BA8A;}
	.st35{fill:#EF7F18;}
	.st36{fill:#FBB040;}
</style>
<path class="st0" d="M412.5,443.58H31.58c-17.16,0-31.08-13.91-31.08-31.08V31.58C0.5,14.41,14.41,0.5,31.58,0.5H412.5
	c17.16,0,31.08,13.91,31.08,31.08V412.5C443.58,429.66,429.66,443.58,412.5,443.58z"/>
<g>
	<g>
		<path class="st30" d="M228.22,298.38c0,11.49-0.02,22.97,0.03,34.46c0.01,1.39-0.34,1.82-1.77,1.81c-9.4-0.06-18.81-0.06-28.21,0
			c-1.45,0.01-1.88-0.34-1.88-1.85c0.05-21.74,0.04-43.49,0.03-65.23c0-3.76-2.18-6.71-5.56-7.58c-3.92-1.01-7.51,0.53-9.36,3.94
			c-0.65,1.2-0.55,2.48-0.56,3.74c-0.01,21.53-0.01,43.06-0.01,64.59c0,2.35,0,2.35-2.41,2.35c-9.24,0-18.49-0.03-27.73,0.03
			c-1.52,0.01-2-0.4-1.99-1.97c0.05-21.69-0.03-43.38,0.09-65.07c0.02-4.16-2.86-7.3-6.74-7.89c-4.42-0.67-8.6,2.64-8.8,7.11
			c-0.09,2.08-0.03,4.17-0.03,6.25c0,19.77,0,39.54,0,59.3c0,2.23,0,2.23-2.16,2.23c-9.24,0-18.49-0.03-27.73,0.03
			c-1.62,0.01-2.08-0.47-2.07-2.09c0.05-21.53-0.03-43.06,0.06-64.59c0.06-14.8,7.03-25.62,19.75-32.81
			c8.27-4.68,17.29-5.85,26.57-4.56c5.82,0.81,11.25,2.98,16.19,6.22c0.77,0.5,1.16,0.45,1.92-0.02c4.48-2.8,9.25-4.8,14.49-5.84
			c4.94-0.98,9.92-1.2,14.78-0.34c14.18,2.5,24.77,10.03,30.64,23.45c1.62,3.7,2.45,7.69,2.45,11.79c0,10.85,0,21.69,0,32.54
			C228.21,298.38,228.22,298.38,228.22,298.38z"/>
		<path class="st30" d="M228.22,178c0,11.38-0.03,22.76,0.03,34.14c0.01,1.47-0.25,2-1.88,1.98c-9.4-0.09-18.81-0.08-28.21-0.01
			c-1.41,0.01-1.77-0.33-1.77-1.75c0.05-21.64-0.05-43.28,0.09-64.91c0.03-5.15-3.94-9.04-9.27-8.34c-2.94,0.38-5.84,3.06-6.2,5.97
			c-0.12,0.95-0.19,1.91-0.19,2.87c-0.01,21.37-0.02,42.74,0.02,64.11c0,1.57-0.33,2.08-2.02,2.07c-9.3-0.09-18.59-0.04-27.89-0.05
			c-2.1,0-2.1,0-2.1-2.05c0-21.69,0-43.38,0-65.07c0-3.94-1.37-5.92-5.03-7.43c-4.42-1.82-9.72,1.17-10.38,5.89
			c-0.12,0.84-0.1,1.7-0.1,2.56c-0.01,21.37-0.02,42.74,0.03,64.11c0,1.6-0.36,2.06-2.02,2.04c-9.35-0.09-18.7-0.07-28.05-0.02
			c-1.39,0.01-1.94-0.26-1.93-1.82c0.05-21.9-0.1-43.81,0.09-65.71c0.12-13.9,6.8-24.27,18.51-31.39
			c7.99-4.86,16.85-6.43,26.09-5.45c6.4,0.68,12.38,2.85,17.79,6.41c0.82,0.54,1.29,0.52,2.09,0c8.45-5.5,17.81-7.62,27.7-6.37
			c12.58,1.59,22.7,7.57,29.52,18.5c2.37,3.8,3.87,7.96,4.59,12.44c0.4,2.51,0.46,4.98,0.47,7.48
			C228.24,158.13,228.22,168.06,228.22,178z"/>
		<path class="st30" d="M290.33,334.61c-29.02-0.09-52.26-23.62-52.11-52.46c0.16-29.1,23.61-52.11,52.37-52.06
			c29.24,0.05,52.29,23.86,52.14,52.58C342.57,311.45,319.1,334.75,290.33,334.61z M267.69,282.42
			c0.02,12.46,10.26,22.72,22.75,22.68c12.77-0.04,22.9-9.95,22.81-22.88c-0.1-12.99-10.36-22.55-22.76-22.59
			C277.96,259.59,267.67,269.91,267.69,282.42z"/>
		<path class="st30" d="M342.71,161.88c-0.04,28.86-23.33,52.19-52.26,52.14c-28.99-0.04-52.23-23.3-52.23-52.37
			c0-28.97,23.77-52.3,52.54-52.15C319.22,109.64,342.87,132.92,342.71,161.88z M290.5,139.07c-12.51-0.18-22.86,10.23-22.79,22.69
			c0.08,12.76,10.18,22.69,22.66,22.7c12.7,0.01,22.88-9.64,22.88-22.84C313.25,148.84,302.93,138.99,290.5,139.07z"/>
	</g>
</g>
</svg>
