<?xml version="1.0" encoding="utf-8"?>
<!-- Generator: Adobe Illustrator 27.8.1, SVG Export Plug-In . SVG Version: 6.00 Build 0)  -->
<svg version="1.1" id="Layer_1" xmlns="http://www.w3.org/2000/svg" xmlns:xlink="http://www.w3.org/1999/xlink" x="0px" y="0px"
	 viewBox="0 0 444.1 444.1" style="enable-background:new 0 0 444.1 444.1;" xml:space="preserve">
<style type="text/css">
	.st0{fill:#FFFFFF;stroke:#000000;stroke-miterlimit:10;}
	.st1{fill:#005691;}
	.st2{fill:#27AAE1;}
</style>
<path class="st0" d="M412.5,443.6H31.6c-17.2,0-31.1-13.9-31.1-31.1V31.6c0-17.2,13.9-31.1,31.1-31.1h380.9
	c17.2,0,31.1,13.9,31.1,31.1v380.9C443.6,429.7,429.7,443.6,412.5,443.6z"/>
<g>
	<g>
		<path class="st1" d="M62.8,168.7H40.2v101.2l0,0c0.9,2.8,2.8,4.2,6.1,4.2c2.8,0,5.2-1.4,6.1-4.2l0,0v-40.5h9.4
			c6.6,0,12.2-2.4,16.5-7.5c4.2-4.7,6.1-11.3,6.1-18.8v-8C84.4,177.6,77.4,168.7,62.8,168.7z M61.8,218.5h-9.4v-39.1h10.8
			c6.1,0,9.4,5.2,9.4,15.5v8C72.6,213.8,68.9,218.5,61.8,218.5z"/>
		<path class="st1" d="M305.6,214.3c-3.3-7.5-9.4-11.8-18.8-11.8s-15.5,3.8-19.3,11.8c-2.4,5.2-3.3,13.2-3.3,24.5
			c0,10.8,0.9,19.3,3.3,24.5c3.3,8,8.9,12.2,17.9,12.2c9.4,0,16-3.8,19.3-11.8c2.4-4.7,3.3-13.2,3.3-24.9
			C307.9,227.5,307,219,305.6,214.3z M276.9,222.3c1.4-5.6,4.2-8.5,9.9-8.5c4.7,0,7.5,2.8,8.9,8.9c0.5,2.4,0.9,7.5,0.9,16
			c0,8.5-0.5,13.6-0.9,16.5c-1.4,6.1-4.2,9.4-9.4,9.4c-6.6,0-10.4-8.5-10.4-25.4C276.4,230.8,276.4,225.1,276.9,222.3z"/>
		<path class="st1" d="M103.2,202.5c-6.1,0-7.1,3.3-7.1,5.2s0.9,3.8,2.8,5.2c0.9,0.5,2.4,0.9,4.7,0.9h0.5c6.1,0,17.4,5.2,17.4,15.5
			v3.8c-4.7-2.4-9.4-3.8-14.1-3.8c-12.2,0-18.4,8.5-18.4,25.4v0.5c0,6.1,1.4,10.8,4.7,14.1c3.3,3.3,7.1,5.2,11.8,5.2
			c6.1,0,11.3-2.4,16-7.5v3.3l0,0c1.4,2.4,3.3,3.8,6.1,3.8c2.8,0,4.7-1.4,6.1-4.2l0,0v-40.9C133.8,211.5,118.3,202.5,103.2,202.5z
			 M101.3,254.3c0-14.6,6.1-14.6,8-14.6c2.8,0,7.1,1.4,12.2,4.2v10.8c-2.8,5.6-7.5,8-13.2,8c-4.7,0-7.1-1.9-7.1-6.1
			C101.3,256.7,101.3,254.3,101.3,254.3z"/>
		<path class="st1" d="M230.3,202.5c-9.4,0-15.5,3.8-19.3,11.8c-2.4,5.2-3.3,13.6-3.3,24.5c0,10.8,0.9,18.8,3.3,24.5
			c3.3,8,9.4,12.2,17.9,12.2c9.4,0,16-3.8,19.3-11.8c2.4-5.2,3.3-13.6,3.3-24.5c0-10.8-0.9-19.3-2.8-24.5
			C245.3,206.8,239.2,202.5,230.3,202.5z M220.4,222.3c1.4-5.6,4.2-8.5,9.4-8.5c4.7,0,8,2.8,8.9,8.9c0.5,2.4,0.5,7.5,0.5,16
			c0,8.5,0,13.6-0.5,16.5c-1.4,6.1-4.7,9.4-9.4,9.4c-6.6,0-9.9-8.5-9.9-25.4C219.5,228,219.9,223.7,220.4,222.3z"/>
		<path class="st1" d="M185.6,205.4L185.6,205.4c-2.8,0.5-4.7,1.9-5.6,4.2l0,0v49.9c-6.1,3.3-9.9,3.8-11.8,3.8
			c-1.9,0-6.6,0-6.6-14.1v-39.5l0,0c-1.4-2.8-3.3-4.2-6.1-4.2l0,0c-2.8,0.5-4.7,1.4-6.1,4.2l0,0v39.5c0,16.5,5.6,24.9,16.9,24.9
			c3.8,0,8.5-1.4,13.6-3.8v16c0,4.7-0.9,7.5-2.4,9.4c-1.9,2.4-2.8,3.8-2.8,5.2c0,2.8,1.4,4.7,4.2,6.1l0,0l0,0c3.8,0,7.1-2.4,9.4-6.6
			c2.4-3.3,3.3-7.5,3.3-11.8v-79l0,0C190.7,206.8,188.4,205.4,185.6,205.4z"/>
	</g>
	<path class="st2" d="M358.3,200.7c0.9,3.8,6.1,6.1,12.2,5.2c6.1-0.9,9.9-4.2,8.9-8s-6.6-6.1-12.2-5.2
		C361.5,193.1,357.3,196.9,358.3,200.7 M395.9,200.7c4.2-0.5,7.5-3.3,6.6-6.1c-0.9-2.8-4.7-4.7-9.4-3.8c-4.2,0.5-7.5,3.3-6.6,6.1
		C387.4,199.7,391.2,201.1,395.9,200.7 M271.7,147.5c4.7-0.5,7.5-3.3,7.1-6.1s-4.7-4.7-9.4-4.2s-7.5,3.3-7.1,6.1
		C263.2,146.6,267.4,148,271.7,147.5 M345.1,222.8c-6.1-2.8-14.6-1.4-18.8,2.4c-4.2,4.2-3.3,9.4,2.8,11.8c6.1,2.4,14.6,1.4,18.8-2.4
		C352.6,230.8,351.2,225.6,345.1,222.8 M351.2,201.6c-0.9-4.7-8-7.5-15.5-6.6c-7.5,0.9-12.7,5.6-11.3,10.4c0.9,4.7,8,7.5,15.5,6.6
		C347.4,210.5,352.1,205.8,351.2,201.6 M345.1,157.8c3.8,1.4,8.9,0.9,11.8-1.4s1.9-5.6-1.9-7.1c-3.8-1.4-8.9-0.9-11.3,1.4
		C340.8,153.1,341.8,156.4,345.1,157.8 M328.1,172.9c4.7,1.9,11.8,1.4,15.1-1.9c3.8-3.3,2.8-7.5-2.4-9.4c-4.7-1.9-11.8-1.4-15.1,1.9
		C322.5,166.8,323.4,171,328.1,172.9 M205.3,163c-3.8-1.4-8.9-0.9-11.3,1.4c-2.8,2.4-1.9,5.6,1.4,7.1c3.8,1.4,8.9,0.9,11.3-1.4
		C209.6,168.2,208.6,164.9,205.3,163 M292.9,176.2c-0.9-4.7-8-7.5-15.5-6.6c-7.5,0.9-12.7,5.6-11.3,10.4c0.9,4.7,8,7.5,15.5,6.6
		C288.6,185.6,293.8,180.9,292.9,176.2 M323.9,176.7c-6.1-2.8-14.6-1.4-18.8,2.4c-4.2,3.8-3.3,9.4,2.8,11.8
		c6.1,2.8,14.6,1.4,18.8-2.4C331.4,184.7,330,179.5,323.9,176.7 M388.4,245.4c-3.8-1.4-8.9-0.9-11.3,1.4c-2.8,2.4-1.9,5.6,1.9,7.1
		c3.8,1.4,8.9,0.9,11.3-1.4C392.6,250.5,391.7,247.2,388.4,245.4 M369.1,235.5c-4.7-2.4-11.8-1.4-15.1,1.9c-3.8,3.3-2.4,7.5,2.4,9.4
		c4.7,1.9,11.8,1.4,15.1-1.9S373.8,237.4,369.1,235.5 M227.9,170.6c-4.7-1.9-11.8-1.4-15.5,1.9c-3.3,3.3-2.4,7.5,2.4,9.4
		c5.2,1.9,11.8,1.4,15.1-1.9C233.6,177.1,232.6,172.9,227.9,170.6 M276.4,165.4c6.1-0.9,9.9-4.2,8.9-8c-0.9-3.8-6.6-6.1-12.2-5.2
		c-6.1,0.9-9.9,4.2-8.9,8C264.6,163.5,270.3,165.8,276.4,165.4 M238.7,194.5c6.1,2.4,14.6,1.4,18.8-2.4c4.2-3.8,3.3-9.4-2.8-11.8
		c-6.1-2.4-14.6-1.4-18.8,2.4C231.2,186.6,232.6,192.2,238.7,194.5"/>
	<g>
		<path class="st1" d="M395.4,143.3c-4.7,0-8.5,3.8-8.5,8.5s3.8,8.5,8.5,8.5c4.7,0,8.5-3.8,8.5-8.5
			C403.4,146.6,399.7,143.3,395.4,143.3z M395.4,157.8c-3.8,0-6.6-2.8-6.6-6.6c0-3.8,2.8-6.6,6.6-6.6c3.8,0,6.6,2.8,6.6,6.6
			C402,155,398.7,157.8,395.4,157.8z"/>
		<path class="st1" d="M397.3,151.3L397.3,151.3c0.9-0.5,1.9-0.9,1.9-1.9c0-0.5-0.5-0.9-0.9-1.4c-0.9-0.5-1.9-0.5-3.3-0.5
			c-1.4,0-2.4,0-3.3,0v7.1h2.4v-2.8h0.9c0.9,0,1.4,0.5,1.9,0.9c0.5,0.9,0.5,1.4,0.9,1.9h2.4c0-0.5-0.5-1.4-0.9-1.9
			C398.7,152.2,398.2,151.3,397.3,151.3z M395,150.8H394v-1.9c0,0,0.5,0,0.9,0c0.9,0,1.9,0.5,1.9,0.9
			C396.8,150.3,396.4,150.8,395,150.8z"/>
	</g>
</g>
</svg>
